<svg width="30" height="25" viewBox="0 0 30 25" fill="none" xmlns="http://www.w3.org/2000/svg">
<path fill-rule="evenodd" clip-rule="evenodd" d="M29.3125 1.69286C29.52 0.717857 29.3125 0 28.3188 0H25.0375C24.2025 0 23.8175 0.619643 23.6087 1.30357C23.6087 1.30357 21.94 7.01071 19.5763 10.7179C18.8113 11.7929 18.4637 12.1339 18.0462 12.1339C17.8375 12.1339 17.5238 11.7929 17.5238 10.8161V1.69286C17.5238 0.521428 17.2938 0 16.5988 0H11.4388C10.9175 0 10.6038 0.542857 10.6038 1.05893C10.6038 2.16786 11.7863 2.425 11.9075 5.54643V12.3286C11.9075 13.8161 11.7162 14.0857 11.2987 14.0857C10.1862 14.0857 7.48 8.35179 5.87375 1.79107C5.5625 0.514285 5.2475 0 4.40875 0H1.125C0.1875 0 0 0.619643 0 1.30357C0 2.52143 1.1125 8.57143 5.18125 16.5732C7.89375 22.0375 11.7125 25 15.1912 25C17.2775 25 17.535 24.3429 17.535 23.2089V19.0786C17.535 17.7625 17.7325 17.5 18.3937 17.5C18.8812 17.5 19.715 17.8429 21.6625 20.4768C23.8875 23.6 24.2538 25 25.5063 25H28.7875C29.725 25 30.195 24.3429 29.925 23.0429C29.6275 21.75 28.565 19.8732 27.1562 17.6464C26.3913 16.3786 25.2438 15.0125 24.895 14.3286C24.4088 13.4518 24.5475 13.0607 24.895 12.2804C24.895 12.2804 28.895 4.37679 29.3112 1.69286H29.3125Z" fill="#1D75BC"/>
</svg>
